<?xml version="1.0" encoding="UTF-8"?>
<!DOCTYPE svg PUBLIC "-//W3C//DTD SVG 1.1//EN" "http://www.w3.org/Graphics/SVG/1.1/DTD/svg11.dtd">
<!-- Creator: CorelDRAW -->
<svg xmlns="http://www.w3.org/2000/svg" xml:space="preserve" width="8.5in" height="11in" style="shape-rendering:geometricPrecision; text-rendering:geometricPrecision; image-rendering:optimizeQuality; fill-rule:evenodd; clip-rule:evenodd"
viewBox="0 0 8.5 11"
 xmlns:xlink="http://www.w3.org/1999/xlink">
 <defs>
  <style type="text/css">
   <![CDATA[
    .str0 {stroke:white;stroke-width:0.00379134}
    .fil7 {fill:#231E1B}
    .fil6 {fill:#53504F}
    .fil1 {fill:#706E6D}
    .fil2 {fill:#858483}
    .fil0 {fill:#A6A5A4}
    .fil4 {fill:#B9B8B7}
    .fil3 {fill:black}
    .fil5 {fill:white}
   ]]>
  </style>
 </defs>
 <g id="Layer_x0020_1">
  <metadata id="CorelCorpID_0Corel-Layer"/>
  <polygon class="fil0" points="5.33074,3.04009 5.35379,3.04009 5.35379,3.00552 5.33074,3.00552 "/>
  <path class="fil1" d="M3.1163 3.02857l0.0120315 0.0256693 0.0548701 -0.0118307 0.0272835 0.0226772 0.00963386 -0.0134646c-0.0358425,-0.00956299 -0.0345866,-0.00166142 -0.0345866,-0.0460984l-0.0115354 0 -0.000519685 0.0371811 -0.0571772 -0.0141339z"/>
  <path class="fil2" d="M4.24658 4.30878c0.00577559,0.0102717 0.00751181,0.0230669 0.023063,0.0230669 0.0375827,0 0.0444764,-0.0327165 0.0576732,-0.0576811l1.1811e-005 -0.149925c-0.0209134,0 -0.0115394,0.102858 -0.0115394,0.12687l0.000622047 0.0233976 -0.0243425 0.048315 -0.0454882 -0.0140433z"/>
  <path class="fil0" d="M1.3517 4.27416c0.0239528,-0.0251969 0.0437717,-0.0355197 0.069189,-0.0576339l-0.0199291 0.00469291 -0.0492598 0.0298898 0 0.0230512z"/>
  <path class="fil2" d="M7.00306 4.48179l0.0131654 -0.270409 0.0791063 0.0282047c-0.0133228,-0.018185 -0.0267559,-0.0345945 -0.0576929,-0.0345945 -0.0599764,-7.87402e-006 -0.0345787,0.213646 -0.0345787,0.276799z"/>
  <path class="fil2" d="M7.68356 4.85087l-0.0255827 0.00125984 -0.0551654 -0.105067 0 0.0230669c0.0265197,0.0500945 0.020815,0.059874 0.0710984,0.094185l0.00964961 -0.0134449z"/>
  <polygon class="fil1" points="4.25811,5.08151 4.24658,5.09306 4.25811,5.08151 4.2812,5.04691 4.29272,5.04691 4.2812,5.04691 4.25811,5.03539 "/>
  <polygon class="fil2" points="3.88906,5.08151 3.90002,5.05672 3.87752,5.06997 "/>
  <path class="fil2" d="M4.73098 5.15072l-0.0230512 0 -0.00179528 -0.0441654 -0.0443465 -0.0365866 0.0345866 0.034622c0.00133071,0.0592598 -0.010437,0.033126 0.0249882,0.0595945l0.00961811 -0.0134646zm-0.0691929 -0.0576693l-0.0115394 -0.0115433 0.0115394 0.0115433z"/>
  <path class="fil1" d="M3.80833 5.15072l0.0115394 0.0115315c0.0335,-0.0245433 0.0217441,0.00159843 0.023063,-0.0576575l-0.0115394 0.046126 -0.023063 0z"/>
  <path class="fil1" d="M5.87277 5.64667l-0.034563 -0.0115472 0 -0.0230669 -0.0115472 0.0115394c0.0259685,0.0354488 -0.00744094,0.0186142 0.0461102,0.0230748z"/>
  <path class="fil3" d="M4.66178 5.09306l-0.0115394 -0.0115433 0.0115394 -0.0115394 0.0443465 0.0365866 0.00179528 0.0441654 0.0230512 0c0.0530984,0.0141693 0.243713,0.169898 0.375406,0.212807 0.201854,0.0657677 0.212811,0.131528 0.212811,0.352343l-0.00255118 0.0234528 0.0140984 0.10339c0.177004,0.0147559 0.0807126,-0.0700512 0.0807126,-0.207587l0.0017126 -0.080685 0.00982283 -0.173051c0.147665,-0.0122677 0.296276,-0.0713543 0.367559,-0.162969 0.0314134,-0.040374 0.162953,-0.31052 0.162953,-0.367555l0 -0.0461378c0,-0.433598 -0.066189,-0.551591 -0.282823,-0.812827 -0.12302,-0.148358 -0.466689,-0.422197 -0.721492,-0.389217 -0.382598,0.0494961 -0.499756,0.224122 -0.514874,0.615539 -0.0166457,0.431232 0.146732,0.685224 0.146732,0.978638 0,0.242878 0.0807283,0.13076 0.0807402,-0.103811z"/>
  <path class="fil3" d="M4.25811 5.08151l-0.0115354 0.0115433 -0.309693 0.676016 0.00839764 0.0136063 0.197516 0.0254528 0.288323 0c0.112024,0 0.0917795,-0.0129134 0.180563,-0.0379843l-0.318961 -0.723232 -0.0115236 0 -0.0230866 0.0345984z"/>
  <path class="fil1" d="M3.92366 5.81967c0.00190157,0.00190551 0.00596063,-0.00596063 0.00572441,-0.00570472 -0.000224409,0.000188976 -0.0076378,0.00380315 -0.00572441,0.00570472z"/>
  <polygon class="fil1" points="2.57424,5.84272 2.61824,5.8419 2.63191,5.80813 "/>
  <path class="fil3" d="M3.174 5.84272l0.0230591 -0.0345866c0.0606339,-0.126382 -0.0748228,-0.375102 0.197496,-0.436823 0.173732,-0.0393701 0.334909,-0.199524 0.413768,-0.220579l0.0230669 -3.93701e-006 0.0115394 -0.0461299 0.0345866 -0.034622 0.0225039 -0.013252 -0.0109567 0.0247913 0.00971654 0.231579 0.0133622 -0.000909449c0.0754803,-0.00625984 0.118358,-0.465402 0.149724,-0.565311 0.0524409,-0.167232 0.0764331,-0.472988 0.0338504,-0.656201 -0.0562362,-0.241736 -0.0435236,-0.347051 -0.275457,-0.439717 -0.212795,-0.0850315 -0.406819,-0.0584528 -0.585055,0.0385906 -0.288496,0.157 -0.59939,0.450827 -0.667453,0.809142 -0.154209,0.811673 0.537043,0.887232 0.537043,0.917315l-0.00244094 0.219024 -0.00866929 0.20724 0.011185 0.00397244 0.0691299 -0.00351969z"/>
  <polygon class="fil1" points="3.174,5.84272 3.19706,5.84272 3.19706,5.80813 "/>
  <path class="fil1" d="M5.68824 6.47705l0.0807362 -0.0691969c-0.0284882,0.0191024 -0.0607598,0.0419843 -0.0807362,0.0691969z"/>
  <polygon class="fil2" points="2.96639,6.54627 2.95485,6.52319 2.9318,6.52319 2.94331,6.54627 "/>
  <polygon class="fil2" points="3.1163,6.58085 3.12784,6.56933 3.12784,6.55781 3.09325,6.55781 3.09325,6.58085 "/>
  <polygon class="fil0" points="5.38837,6.63852 5.46911,6.59239 5.42159,6.60348 5.43393,6.56016 5.37581,6.54709 5.42492,6.60587 5.41266,6.60915 5.37513,6.60914 5.40092,6.61608 "/>
  <path class="fil4" d="M2.97791 6.54627c0.0257677,0.0384488 0.108602,0.079937 0.161465,0.0922638l-0.0109528 -0.0213228 0.0224961 -0.0132559 -0.0346142 0 0 -0.0231024 0.0115354 -0.0115236 0.00962205 -0.0249764 -0.00962205 0.0134606 0 0.0115157 -0.0115354 0.0115236 -0.0230512 0 0 -0.0230394 -0.0119882 0.0235433 -0.0341535 -0.0235433c0.0125315,0.0345866 0.0114961,0.037378 0.0443976,0.0236378l0.0151929 0.0244213 -0.0117283 0.00644094 -0.117063 -0.0660433z"/>
  <path class="fil1" d="M3.16246 6.62701c0.0018937,0.00191339 0.0059685,-0.00595669 0.00570472,-0.00571654 -0.000212598,0.000220472 -0.00762992,0.00382677 -0.00570472,0.00571654z"/>
  <path class="fil0" d="M5.35379 6.65008l0.0230591 -0.0115551c-0.0420276,-0.0463543 0.020374,-0.00254331 -0.0367717,-0.0222362l0.0137126 0.0337913z"/>
  <path class="fil5" d="M3.16816 6.62129c0.00026378,-0.00023622 -0.00381102,0.00764567 -0.00570472,0.00572441l0.00570472 -0.00572441zm-0.0749094 -0.0634724l0.0345866 0 0.00962205 -0.0134606 -0.00962205 0.0249764 -0.0115354 0.0115236 0 0.0231024 0.0346142 0 -0.0224961 0.0132559 0.0109528 0.021311 0.103807 0.0230866 0 -0.0922795 0.00811811 0.00831102 0.0760472 -0.0742756 0.00811811 0.00830315c0.0468543,0.0976693 -0.00709449,0.588217 0.0807323,0.588217l0.196063 -7.87402e-006c0.0534409,0 0.0346811,-0.0215236 0.106689,-0.0226772l0.0729764 -0.536307 0.0394646 0.00537795c0.0523031,0.108972 0.00382677,0.353776 0.0195787,0.476197 0.0278661,0.216571 -0.0086811,0.308067 0.245701,0.308067l0.0807165 -7.87402e-006c0.0597323,0 0.0576614,-0.262965 0.0576614,-0.334461l7.87402e-006 -0.0115315c0,-0.128031 -0.0576496,-0.320547 0.0807323,-0.288331 0.0203937,0.0425079 -0.0111654,0.634331 0.0576575,0.634331l0.0807323 -7.87402e-006c0.0317835,0 0.190315,-0.0553425 0.226303,-0.0689921l0.0188307 -0.716102 0.0548189 -0.00199213 0.0691299 0.533366c0.0690906,0.00154331 0.0503386,0.0230787 0.103799,0.0230787l0.184516 -7.87402e-006c0.139189,0 -0.0335551,-0.584642 0.12687,-0.588209l-0.0101063 0.00720079 0.0427717 0.060063 0.0134685 -0.00960236 0.000570866 0.0950591 0.0686417 -0.014311 -0.0137047 -0.0337992c0.0571378,0.0196929 -0.00526378,-0.0241024 0.0367598,0.0222559l0.0115276 -1.1811e-005 0.0125433 -0.0224449 -0.0257913 -0.00693701 0.0375354 1.1811e-005 0.0122559 -0.00327953 -0.0491024 -0.0587835 0.0581181 0.0130669 -0.0123386 0.0433268 0.0475157 -0.0110906 0.219134 -0.115343c0.0199764,-0.0272126 0.052248,-0.0500945 0.0807362,-0.0691929 0.0817323,-0.0432362 0.372886,-0.317421 0.309228,-0.457295 -0.0689291,-0.151496 -0.444835,-0.154709 -0.459161,-0.326969 0.0943976,-0.178386 0.323551,-0.313232 0.424469,-0.613531 0.0973465,-0.289642 0.225736,-0.488189 0.0669291,-0.800543 -0.177701,-0.349484 -0.740496,-0.834937 -1.25259,-0.834937l-0.0461299 -7.87402e-006c-0.291315,0 -0.484406,0.431429 -0.484406,0.749677l1.1811e-005 0.149906c-0.0132047,0.0249724 -0.0201063,0.057689 -0.057685,0.057689 -0.0155472,0 -0.0172874,-0.0127913 -0.0230669,-0.0230551 -0.0605866,-0.260094 0.0127047,-0.336504 -0.116075,-0.610535 -0.0660315,-0.140469 -0.218028,-0.323673 -0.425972,-0.323673l-0.0115315 -7.87402e-006c-0.325571,0 -0.652626,0.187677 -0.848669,0.327752 -0.123311,0.0880787 -0.523811,0.489602 -0.523811,0.652598 0,0.288941 0.0710433,0.562394 0.17687,0.745799 0.0439882,0.0762362 0.128665,0.220323 0.182988,0.278374 0.0436417,0.0466378 0.194701,0.202717 0.216815,0.244496l0.0208307 0.0361693 -0.28611 0.148366 -0.0136732 0.0337717 -0.044 0.000814961c-0.428303,0.205535 0.175642,0.565063 0.357563,0.68048l0.0230512 -3.93701e-006 0.0115354 0.0230787 0.0115236 0 0.117063 0.0660433 0.0117283 -0.00644094 -0.0151929 -0.0244252c-0.0329016,0.0137441 -0.0318661,0.0109567 -0.0443976,-0.0236299l0.0341535 0.0235394 0.0119882 -0.0235433zm0.836134 -0.743858c0.000244094,-0.000255906 -0.00382283,0.00761811 -0.00572441,0.0057126l0.00572441 -0.0057126zm0.317193 -0.720902l0.0115354 -0.0115433 0 -0.046126 0.0230866 0.0115276 0.0115236 0 0.318969 0.723232c-0.0887913,0.025063 -0.0685472,0.0379843 -0.180575,0.0379843l-0.288319 0 -0.197516 -0.0254528 -0.00839764 -0.0136063 0.309693 -0.676016zm0.484398 0.0576693l-0.00961811 0.0134528c-0.0354213,-0.0264646 -0.0236693,-0.000322835 -0.0249921,-0.0595787l-0.0345827 -0.034626 -0.0115394 0.0115394 0.0115394 0.0115433c0,0.234571 -0.0807402,0.346693 -0.0807402,0.103811 0,-0.293413 -0.16339,-0.547402 -0.146732,-0.978638 0.015122,-0.391421 0.132276,-0.566039 0.514874,-0.615539 0.254807,-0.0329843 0.598472,0.240874 0.721492,0.389217 0.216634,0.261232 0.282823,0.379228 0.282823,0.812827l0 0.0461339c0,0.0570394 -0.131543,0.327197 -0.162953,0.367559 -0.0712795,0.0916102 -0.219898,0.150709 -0.367563,0.162969l-0.0098189 0.173051 -0.00170472 0.0806732c0,0.137547 0.0962795,0.222354 -0.0807244,0.207602l-0.0140945 -0.103394 0.00255906 -0.0234528c0,-0.220823 -0.0109646,-0.286571 -0.212819,-0.352343 -0.131685,-0.0429094 -0.322307,-0.198626 -0.375406,-0.212807zm-0.841913 -0.0692126l-0.0115472 -0.0115394 -0.0345866 0.034622c-0.0013189,0.0592598 0.0104331,0.033126 -0.023063,0.0576732l-0.0115394 -0.0115433c-0.0788622,0.0210512 -0.240039,0.181217 -0.413772,0.220583 -0.272319,0.0617165 -0.136862,0.310445 -0.197496,0.436823l0 0.0345866 -0.0230591 0 -0.0691299 0.00351969 -0.011185 -0.00397244 0.00866929 -0.20724 0.00244094 -0.219031c0,-0.0300787 -0.691252,-0.10563 -0.537043,-0.917307 0.068063,-0.358315 0.378957,-0.65213 0.667453,-0.809142 0.178236,-0.0970472 0.37226,-0.12361 0.585055,-0.0385906 0.231933,0.0926496 0.21922,0.19798 0.275457,0.439717 0.0425906,0.183205 0.0185866,0.488972 -0.0338504,0.656201 -0.0313661,0.0999055 -0.0742441,0.559059 -0.149732,0.565319l-0.0133543 0.000901575 -0.00971654 -0.231579z"/>
  <path class="fil6" d="M4.15431 7.66501l0.0115394 -0.0345945 0.0346063 0c0,-0.0151693 -0.040248,-0.0362835 -0.0461457,0.0345945z"/>
  <path class="fil1" d="M4.36191 7.66501l0 -0.0345945 0.0214409 0.000322835 0.0131378 0.0342717c-0.00350787,-0.0424252 -0.00368898,-0.0425945 -0.0476969,-0.0459094l0.0131181 0.0459094z"/>
  <path class="fil3" d="M4.24658 4.30878l0.0454882 0.0140433 0.0243425 -0.048315 -0.00061811 -0.0234016c0,-0.0240118 -0.00938976,-0.126854 0.0115236,-0.126854 1.1811e-005,-0.318248 0.193091,-0.749669 0.484402,-0.749669l0.0461417 -7.87402e-006c0.512098,0 1.07489,0.485469 1.25259,0.834945 0.158815,0.312343 0.0304134,0.510909 -0.0669291,0.800543 -0.100906,0.300295 -0.330071,0.435146 -0.424469,0.613531 0.0143386,0.172256 0.390232,0.175476 0.459161,0.326969 0.0636614,0.139862 -0.2275,0.414063 -0.309228,0.457295l-0.0807362 0.0691929 -0.219134 0.115343 -0.0807362 0.0461299 -0.0115236 0 -0.0230591 0.0115551 -0.0686417 0.014311 -0.000570866 -0.0950591 -0.0134685 0.00960236 -0.0427717 -0.060063 0.0101102 -0.00720079c-0.160429,0.00355906 0.012311,0.588217 -0.126874,0.588217l-0.184516 -7.87402e-006c-0.0534528,0 -0.0347165,-0.0215236 -0.103799,-0.0230669l-0.0691299 -0.53337 -0.0548189 0.00199213 -0.0188307 0.716102c-0.0359843,0.0136457 -0.194531,0.069 -0.226307,0.069l-0.0807165 -7.87402e-006c-0.0688268,0 -0.0372874,-0.591815 -0.0576693,-0.634323 -0.13837,-0.0322244 -0.0807402,0.160307 -0.0807402,0.288331l7.87402e-006 0.0115315c0,0.0714921 0.00206299,0.334469 -0.0576772,0.334469l-0.0807008 -7.87402e-006c-0.25439,0 -0.217843,-0.0914764 -0.245709,-0.308059 -0.015752,-0.122425 0.0327205,-0.367224 -0.0195787,-0.476193l-0.0394646 -0.00538189 -0.0729764 0.536295c-0.0720079,0.00116142 -0.053248,0.0226969 -0.106689,0.0226969l-0.196059 -7.87402e-006c-0.0878307,0 -0.0338819,-0.490528 -0.0807362,-0.588209l-0.00811811 -0.00830315 -0.0760472 0.0742756 -0.00811811 -0.00831102 0 0.0922795 -0.103807 -0.0230866c-0.0528622,-0.012315 -0.135697,-0.0537953 -0.161465,-0.092248l-0.0115236 -3.93701e-006 -0.0230787 0 -0.0115079 -0.0230787c-0.181921,-0.115421 -0.785866,-0.474933 -0.357563,-0.680472l0.0576732 -0.0345906 0.28611 -0.148366 -0.0208307 -0.0361732c-0.0221142,-0.0417756 -0.173173,-0.19785 -0.216815,-0.244492 -0.0543228,-0.0580591 -0.139,-0.202134 -0.182988,-0.278374 -0.105827,-0.183406 -0.17687,-0.45685 -0.17687,-0.745799 0,-0.163004 0.4005,-0.564512 0.523811,-0.652598 0.196043,-0.140083 0.523098,-0.327744 0.848669,-0.327744l0.0115315 -7.87402e-006c0.207945,0 0.359937,0.183224 0.425972,0.323681 0.12878,0.274024 0.0554882,0.350441 0.116079,0.610524zm-2.89488 -0.034622l0 -0.0230512 0.0492598 -0.0298898 0.0199291 -0.00470079 0.0378583 0.000685039 0.0285748 0.3465 0.014315 -0.00117717c0.0344016,-0.0028622 0.057685,-0.0082874 0.057685,-0.046122l-0.00440551 -0.0115984 -0.00715354 -0.334429c0.647909,0 0.465878,-0.155748 0.649768,0.492063 0.0404331,0.142413 0.304492,0.800807 0.393213,0.815272l0.0872953 0.157409c-0.20974,0.00468898 -0.401008,0.21022 -0.367079,0.435606 0.0252441,0.167866 0.282051,0.349815 0.392346,0.45028 0.128909,0.117492 0.447398,0.160783 0.482858,0.359067 0.0182441,0.101961 -0.00167717,0.285496 0.0384803,0.376764 0.0512362,0.116421 0.0531417,0.213378 0.0531417,0.373591l-0.000519685 0.184449 -0.0340827 0.311488c-0.00119685,0.00917323 0.0567717,0.0929252 0.112012,0.0556378 0.041315,-0.0279173 0.0160118,-0.0906772 0.0216772,-0.163319 0.00569291,-0.0730945 0.016811,-0.119476 0.0225945,-0.187453 0.00968504,-0.113748 -0.0294094,-0.0699094 -0.0294094,-0.166213l0 -0.0807283c0,-0.216209 0.16072,-0.322953 0.380598,-0.322953 0.0124134,0.149283 0.0441496,0.135189 0.0722402,0.21613 0.00785827,0.0227244 0.0406063,0.209354 0.0469567,0.242205 0.0261181,0.13526 -0.0499843,0.304878 -0.0499843,0.498957l-7.87402e-005 0.0807165 0.0273976 0.242469 -0.0273189 0.495697 0 0.0345906c0.0246969,0.0368819 0.0189213,0.00806693 0.0236299,0.0559291l0.0224961 0.0132677c0.147268,-0.0122638 0.126866,-0.646547 0.126866,-0.795791l0.00555906 -0.0226457 0.0463228 -0.600626 0.0190709 -0.00249213 0.0235118 0.106256 0.0380709 0.0124606 0.0289213 -0.173445c0.00590157,-0.0708858 0.0461457,-0.049752 0.0461457,-0.0345866l0.0345945 0.415209 0.0237165 0.0370827 0.0454764 -0.0140276 0.0576654 -0.403677 -0.0131102 -0.0459173c0.044,0.00332283 0.0441693,0.00349606 0.047689,0.0459213l0.0115394 0.161469 0.0554567 -0.000488189 0.0235276 -0.106256 0.0191693 0.00251181 0.051811 0.600193 0 0.0230512c0,0.159795 -0.0358898,0.755425 0.115303,0.795803l0.0230709 -0.0115394c0.0041378,-0.0495984 -0.00161811,-0.0207795 0.0230984,-0.0576614l0 -0.0345906 -0.000413386 -0.161709 -0.021626 -1.08439 -0.024126 0.000484252c-0.00467323,-0.234858 0.10122,-0.360831 0.115343,-0.530559 0.216543,-3.93701e-006 0.369063,0.109606 0.369063,0.322961l0 0.0807165c0,0.0963031 -0.0391102,0.0524724 -0.0294055,0.166217 0.00576772,0.067626 0.0165315,0.114776 0.0226614,0.187476 0.00606299,0.0723228 -0.0167677,0.137783 0.0217677,0.163429 0.0462992,0.0307992 0.111843,-0.0330197 0.111843,-0.067311l-0.00650394 -0.0569134 -0.0280984 -0.300622 0 -0.103787c0,-0.259732 0.0725984,-0.397047 0.0696417,-0.564717 -0.00521654,-0.29739 0.041937,-0.317295 0.234201,-0.411661 0.181287,-0.0889921 0.641913,-0.414689 0.641913,-0.638307l0 -0.0922756c0,-0.127831 -0.200264,-0.289657 -0.322957,-0.29987 -0.0535433,-0.00447638 -0.0201457,0.012374 -0.0461142,-0.0230748l0.0115512 -0.0115433c0.000531496,-0.00200394 0.22039,-0.359965 0.245969,-0.399866 0.0774055,-0.120917 0.135819,-0.319205 0.188909,-0.468484 0.0563425,-0.158394 0.0986693,-0.336528 0.142583,-0.503315 0.0445709,-0.169189 0.280299,-0.07 0.509425,-0.0697323l0.00407087 0.184268 -3.54331e-005 0.207602 0.0286772 0.00701181 0.0452559 -0.087748c0,-0.0631614 -0.0253976,-0.276799 0.0345787,-0.276799 0.0309449,-7.87402e-006 0.0443701,0.0164173 0.0576929,0.0345984l0.0851417 0.500004 0.0301929 -0.00407087 0 0.0230709c0,0.208004 -0.0595157,0.628866 0.0691929,0.715079 0.030748,-0.00820079 0.0692205,-0.0324291 0.0692205,-0.0692205l-0.00514567 -0.045563 -0.0825787 -0.76102 0.0125709 -0.000822835 -0.00558661 -0.230598 0 -0.253728c0,-0.023878 0.252921,-0.164748 0.288339,-0.173004l0.0128071 -0.00101575 0.0333268 0.808362 0.0551654 0.105067 0.0255827 -0.00125984c0.0742323,-0.0198386 0.00161024,-0.401724 0.00065748,-0.477677 -0.00110236,-0.0875197 0.00176378,-0.477949 0.0162598,-0.531535 0.0533976,-0.197295 0.375177,-0.399248 0.375177,-0.870752l7.87402e-006 -0.230669c0,-0.573291 -0.606043,-1.16487 -1.21101,-1.16487l-0.115315 -1.1811e-005c-0.431831,0 -0.723614,0.266744 -0.931602,0.498567 -0.0873268,0.0972756 -0.198528,0.335906 -0.231327,0.483736 -0.0361732,0.163031 -0.0521575,0.478429 -0.232622,0.482453l-0.0230472 -1.1811e-005c-0.0403307,0.0255945 -0.368047,-0.149524 -0.450484,-0.172319 -0.056752,-0.0157244 -0.513906,-0.139063 -0.51835,-0.139063l-0.161445 0c-0.00814173,0 -0.443996,0.116228 -0.513634,0.132232 -0.107193,0.0246614 -0.443358,0.190189 -0.466705,0.190677l-0.00963386 0.0134646 -0.0272835 -0.0226772 -0.0548701 0.0118307 -0.0120315 -0.0256693c-0.144004,-0.0964409 -0.146634,-0.321327 -0.198398,-0.516665 -0.0430984,-0.162717 -0.150965,-0.346677 -0.247134,-0.467937 -0.189386,-0.238854 -0.549539,-0.468606 -0.973063,-0.468606l-0.161457 -1.1811e-005c-0.559406,0 -1.1649,0.62974 -1.1649,1.211l0 0.115339c0,0.217563 0.0496142,0.373772 0.122984,0.522921 0.0785512,0.15963 0.218618,0.30039 0.261311,0.395626 0.0854016,0.190465 -0.0891732,0.96174 0.0309134,1.04215l0.0402717 0.0021063 0.0386772 -0.741563 0.0224606 0.00111024 0.0139291 -0.184346c0.0421811,0.00351969 0.299862,0.145622 0.299862,0.173028l-0.00183858 0.253685 0.00183858 0.219157c-0.0036378,0.17313 -0.140559,0.820961 -0.0230669,0.899614 0.0607205,-0.0406575 0.121146,-0.211531 0.107433,-0.323484l-0.0267126 -0.195508 0 -0.230673c0,-0.0361654 0.0692126,-0.0279252 0.0692126,-0.253732l0 -0.057685c0,-0.065374 0.0230669,-0.0656969 0.0230669,-0.149945z"/>
  <path class="fil0" d="M4.30425 8.06869l-0.0454764 0.0140276 -0.0237165 -0.0370827c0.00772441,0.0145472 0.0158386,0.0461181 0.0345866,0.0461181 0.0324843,-7.87402e-006 0.0213701,-0.00499606 0.0346063,-0.023063z"/>
  <polygon class="fil1" points="3.55461,8.32244 3.55461,8.29934 "/>
  <polygon class="fil2" points="4.96165,8.32244 4.98472,8.32244 4.98472,8.29934 4.96165,8.29934 "/>
  <path class="fil7" d="M3.27778 8.5185l-0.000610236 0.0220906 -0.0224409 0.0125 0 0.0230669 0.0230512 0.138394c0.0208031,0.0139449 0.0202874,0.0230748 0.0461457,0.0230748l0.0321142 -0.000452756 0.0140118 -0.0802913 -0.0115276 -0.12687 0 -0.0461063c0,-0.0400787 0.0230512,-0.0176181 0.0230512,-0.0576969l0 -0.0230512c0,-0.0269961 -0.019126,-0.0461102 -0.0461142,-0.0461102 -0.0461063,0 -0.0576811,0.106906 -0.0576811,0.161453z"/>
  <path class="fil7" d="M3.55461 8.48391c0.00187008,0.0018937 0.00593701,-0.0059685 0.00570866,-0.00573622 -0.000248031,0.000216535 -0.00762598,0.00382677 -0.00570866,0.00573622z"/>
  <polygon class="fil1" points="4.98472,8.47928 4.96165,8.47928 "/>
  <path class="fil2" d="M3.25473 8.57616l0 -0.0230669 0.0224409 -0.0125 0.000610236 -0.0220906c-0.0420197,0.0463622 0.0203819,0.00254724 -0.0362126,0.0233583l0.0131614 0.0342992z"/>
  <path class="fil2" d="M5.27306 8.57616l0.0115157 -0.0345984c-0.0569449,-0.021248 0.00965748,0.0235906 -0.0346063,-0.0230591l0.000598425 0.0220906 0.0224921 0.0125 0 0.0230669z"/>
  <path class="fil7" d="M5.27306 8.57616l0 -0.0230669 -0.0224921 -0.0125 -0.000598425 -0.0220906c-0.00100787,-0.0465551 -0.0101535,-0.161453 -0.0576575,-0.161453 -0.0269882,0 -0.0461299,0.0191142 -0.0461299,0.0461102l0 0.0230512c0,0.0400709 0.0230591,0.0176181 0.0230591,0.0577047l-0.00155512 0.0114764 0.00155906 0.242236 0.0346142 0c0.0277047,0 0.0338819,-0.018689 0.0550315,-0.0349252l0.0141693 -0.126543z"/>
  <path class="fil2" d="M3.27778 8.71455c0.0120236,0.0179764 0.0152795,0.0346063 0.0461457,0.0346063l0.0115354 0c0.0402008,0 0.0544803,-0.0756535 0.0345906,-0.0922756l-0.0140118 0.0802913 -0.0321142 0.000452756c-0.0258583,0 -0.0253425,-0.00912598 -0.0461457,-0.0230748z"/>
  <polygon class="fil6" points="2.95485,8.85296 2.97791,8.85296 2.97791,8.82989 2.95485,8.82989 "/>
  <polygon class="fil6" points="5.53832,8.85296 5.56139,8.85296 5.56139,8.82989 5.53832,8.82989 "/>
  <path class="fil2" d="M3.86599 9.1413l-0.0224961 -0.0132717c-0.00470472,-0.0478622 0.00106693,-0.0190433 -0.0236299,-0.0559252l0 -0.0345906c-0.0305906,0 0.0020315,0.0920157 0.046126,0.103787z"/>
  <path class="fil1" d="M4.6733 9.1413l0.034622 0 0 -0.0461339c0.0182717,-0.0133819 0.0436142,-0.0308504 0.0115433,-0.0576535l0 0.0345906c-0.0247126,0.0368819 -0.0189606,0.00806693 -0.0231024,0.0576614l-0.023063 0.0115354z"/>
  <polygon class="fil6" points="8.14486,9.2105 8.15643,9.12976 8.14486,9.1413 8.13121,9.17673 "/>
  <polygon class="fil0" points="8.14486,9.1413 8.15643,9.12976 8.14486,9.2105 8.16927,9.22196 8.15643,9.12976 8.13161,9.1188 "/>
  <polygon class="fil1" points="3.37006,9.23356 3.40465,9.23356 3.40465,9.22203 3.37006,9.22203 "/>
  <polygon class="fil1" points="3.51998,9.22894 3.49693,9.22894 "/>
  <polygon class="fil1" points="5.04239,9.22894 5.01932,9.22894 "/>
  <polygon class="fil1" points="5.15771,9.22894 5.13466,9.22894 "/>
  <path class="fil5 str0" d="M3.38826 3.89298c0.29065,0 0.526354,0.275953 0.526354,0.616224 0,0.340268 -0.235705,0.61622 -0.526354,0.61622 -0.290646,0 -0.526354,-0.275949 -0.526354,-0.61622 0,-0.340272 0.235709,-0.61622 0.526354,-0.616224z"/>
  <path class="fil5 str0" d="M5.15989 3.91865c0.29065,0 0.52635,0.275953 0.52635,0.616228 0,0.340272 -0.235705,0.61622 -0.526354,0.61622 -0.29065,-7.87402e-006 -0.526354,-0.275949 -0.526354,-0.61622 0,-0.34028 0.235705,-0.61622 0.526358,-0.616228z"/>
 </g>
</svg>
